<?xml version="1.0" encoding="iso-8859-1"?>
<!-- Uploaded to: SVG Repo, www.svgrepo.com, Generator: SVG Repo Mixer Tools -->
<svg height="800px" width="800px" version="1.1" id="Layer_1" xmlns="http://www.w3.org/2000/svg" xmlns:xlink="http://www.w3.org/1999/xlink" 
	 viewBox="0 0 512 512" xml:space="preserve">
<path style="fill:#F9E0A4;" d="M396.501,73.356c-18.759-51.542-75.75-78.117-127.292-59.358c-17,6.187-31.281,16.535-42.118,29.473
	c-16.617-2.945-34.209-1.692-51.208,4.495c-16.999,6.186-31.281,16.534-42.117,29.472c-16.618-2.945-34.21-1.691-51.209,4.496
	C31.016,100.693,4.441,157.684,23.2,209.226c18.76,51.543,75.751,78.117,127.293,59.357h0.001l40.474,111.202l186.651-67.935
	l-40.474-111.202C388.686,181.888,415.261,124.899,396.501,73.356z"/>
<path style="opacity:0.2;enable-background:new    ;" d="M287.245,361.913c-3.261,0-6.322-2.012-7.502-5.254l-39.302-107.984
	c-1.508-4.142,0.628-8.722,4.771-10.23c4.14-1.507,8.722,0.628,10.23,4.771l39.302,107.984c1.508,4.142-0.629,8.722-4.77,10.23
	C289.074,361.758,288.151,361.913,287.245,361.913z"/>
<path style="opacity:0.2;enable-background:new    ;" d="M239.277,379.373c-3.261,0-6.32-2.012-7.501-5.254l-39.302-107.984
	c-1.508-4.142,0.628-8.722,4.771-10.231c4.14-1.507,8.722,0.629,10.23,4.771l39.302,107.984c1.508,4.142-0.628,8.722-4.771,10.23
	C241.105,379.218,240.183,379.373,239.277,379.373z"/>
<path style="opacity:0.2;enable-background:new    ;" d="M335.216,344.454c-3.261,0-6.322-2.012-7.502-5.254l-39.303-107.984
	c-1.508-4.142,0.629-8.722,4.771-10.23s8.723,0.629,10.23,4.771l39.303,107.984c1.508,4.142-0.629,8.722-4.77,10.23
	C337.043,344.298,336.121,344.454,335.216,344.454z"/>
<path style="fill:#333E48;" d="M377.618,311.851l13.358,36.703c2.045,5.618-0.878,11.889-6.495,13.933l-166.222,60.5
	c-5.618,2.044-11.887-0.879-13.933-6.496l-13.358-36.704L377.618,311.851z"/>
<g>
	<circle style="fill:#FFFFFF;" cx="314.44" cy="65.906" r="38.171"/>
	<circle style="fill:#FFFFFF;" cx="362.756" cy="124.835" r="18.595"/>
</g>
<path style="fill:#6E4C4B;" d="M462.041,487.713c0,8.967-7.337,16.305-16.304,16.305H154.368c-8.967,0-16.305-7.338-16.305-16.305
	v-47.769c0-8.967,7.338-16.305,16.305-16.305h291.368c8.968,0,16.304,7.338,16.304,16.305L462.041,487.713L462.041,487.713z"/>
<path style="fill:#F9BE00;" d="M462.933,152.498c-27.682-7.418-63.343,35.901-70.76,63.584c-6.196,23.12,4.251,46.771,23.988,58.262
	l-38.842,125.911c-2.655,9.908,3.225,20.093,13.134,22.747c9.907,2.654,20.093-3.226,22.748-13.133l29.314-128.464
	c22.837-0.083,43.71-15.34,49.907-38.461C499.839,215.262,490.614,159.916,462.933,152.498z"/>
<path style="opacity:0.1;enable-background:new    ;" d="M442.33,259.677c-2.624,0-5.261-0.35-7.835-1.041
	c-7.78-2.085-14.283-7.074-18.309-14.049c-4.027-6.975-5.097-15.1-3.013-22.879c2.117-7.901,9.044-21.073,19.747-32.692
	c9.94-10.79,19.852-16.591,24.387-15.52c4.536,1.073,8.596,7.421,12.522,22.203c4.359,16.416,3.882,33.08,1.594,41.617
	c-3.527,13.166-15.49,22.361-29.091,22.361C442.33,259.677,442.33,259.677,442.33,259.677z"/>
<path style="fill:#F9BE00;" d="M362.751,471.81H237.354c-4.408,0-7.982-3.574-7.982-7.982s3.574-7.982,7.982-7.982H362.75
	c4.409,0,7.982,3.574,7.982,7.982C370.732,468.237,367.159,471.81,362.751,471.81z"/>
<path style="fill:#1E252B;" d="M465,144.789c-2.757-0.739-5.646-1.113-8.584-1.113c-30.804,0-64.363,42.016-71.951,70.341
	c-6.416,23.94,2.696,49.244,22.305,63.696l-15.177,49.197l-6.474-17.788l-37.844-103.978
	c50.707-22.815,76.045-81.444,56.728-134.516C388.626,28.382,348.105,0,303.168,0c-12.499,0-24.843,2.186-36.691,6.497
	c-16.283,5.927-30.89,15.706-42.502,28.414c-4.69-0.626-9.429-0.942-14.142-0.942c-12.498,0-24.839,2.186-36.681,6.496
	c-16.285,5.927-30.892,15.706-42.502,28.414c-4.689-0.626-9.427-0.942-14.139-0.942c-12.498,0-24.841,2.186-36.684,6.496
	c-26.932,9.802-48.434,29.505-60.546,55.48s-13.385,55.111-3.582,82.043c15.376,42.244,55.898,70.626,100.833,70.626
	c9.849,0,19.601-1.357,29.091-4.043l37.844,103.976l12.062,33.142h-41.16c-13.391,0-24.287,10.895-24.287,24.287v47.769
	c0,13.392,10.895,24.287,24.287,24.287h291.368c13.391,0,24.286-10.895,24.286-24.287v-47.769c0-13.391-10.895-24.287-24.286-24.287
	h-26.144c0.521-1.196,0.973-2.434,1.318-3.722c0.026-0.097,0.05-0.194,0.072-0.291l27.982-122.627
	c24.207-2.71,44.751-20.067,51.166-44.008C508.106,215.25,498.983,153.895,465,144.789z M383.476,351.285
	c0.255,0.702,0.181,1.328,0.049,1.778l-0.03,0.097c-0.042,0.125-0.085,0.241-0.127,0.329c-0.19,0.41-0.654,1.148-1.618,1.498
	L215.53,415.486c-1.474,0.539-3.168-0.255-3.702-1.726l-10.629-29.204l171.65-62.475L383.476,351.285z M370.913,415.657H261.735
	l115.443-42.017l-7.485,24.261c-0.029,0.095-0.056,0.19-0.082,0.287C368.034,404.064,368.509,410.164,370.913,415.657z
	 M157.994,265.854c-0.725-1.989-2.209-3.61-4.127-4.504c-1.066-0.497-2.219-0.748-3.373-0.748c-0.923,0-1.846,0.16-2.731,0.481
	c-10.091,3.674-20.598,5.536-31.23,5.536c-38.25,0-72.743-24.161-85.832-60.123c-8.344-22.926-7.261-47.727,3.049-69.837
	s28.613-38.882,51.538-47.225c10.088-3.672,20.594-5.533,31.225-5.533c5.297,0,10.633,0.469,15.861,1.396
	c2.816,0.499,5.677-0.544,7.511-2.734c10.249-12.236,23.641-21.605,38.729-27.096c10.087-3.672,20.591-5.533,31.221-5.533
	c5.297,0,10.634,0.469,15.863,1.396c2.812,0.5,5.677-0.544,7.511-2.734c10.25-12.237,23.642-21.606,38.73-27.098
	c10.089-3.673,20.596-5.535,31.228-5.535c38.25,0,72.744,24.161,85.832,60.123c17.225,47.323-7.262,99.837-54.587,117.062
	c-4.143,1.508-6.278,6.088-4.77,10.23l37.745,103.702l-171.65,62.475L157.994,265.854z M445.736,431.621
	c4.59,0,8.322,3.733,8.322,8.323v47.769c0,4.59-3.733,8.323-8.322,8.323H154.368c-4.59,0-8.323-3.733-8.323-8.323v-47.769
	c0-4.59,3.733-8.323,8.323-8.323h60.097c0.032,0,0.063,0.003,0.095,0.003c0.028,0,0.056-0.003,0.084-0.003H445.736z
	 M484.712,240.878c-5.117,19.091-22.48,32.474-42.227,32.545c-3.713,0.014-6.927,2.586-7.753,6.206l-29.276,128.298
	c-1.281,4.558-5.451,7.73-10.186,7.73c-0.922,0-1.848-0.122-2.753-0.365c-2.732-0.732-5.017-2.484-6.431-4.935
	c-1.393-2.413-1.778-5.217-1.09-7.91l38.792-125.75c1.094-3.548-0.402-7.383-3.612-9.25c-17.065-9.935-25.411-30.207-20.294-49.299
	c3.116-11.628,12.112-26.721,22.917-38.452c11.741-12.746,23.993-20.057,33.615-20.057c1.544,0,3.043,0.192,4.453,0.569
	C482.323,165.958,491.532,215.424,484.712,240.878z"/>
</svg>